<?xml version="1.0" encoding="utf-8"?>
<!-- Generator: Adobe Illustrator 14.0.0, SVG Export Plug-In . SVG Version: 6.00 Build 43363)  -->
<!DOCTYPE svg PUBLIC "-//W3C//DTD SVG 1.1//EN" "http://www.w3.org/Graphics/SVG/1.1/DTD/svg11.dtd">
<svg version="1.1" id="Layer_1" xmlns="http://www.w3.org/2000/svg" xmlns:xlink="http://www.w3.org/1999/xlink" x="0px" y="0px"
	 width="279.003px" height="25.309px" viewBox="0 0 279.003 25.309" enable-background="new 0 0 279.003 25.309"
	 xml:space="preserve">
<path d="M6.479,0.36V5.6h3.21v11.6c0,1.811-0.674,2.691-2.06,2.691c-1.703,0-2.061-1.463-2.061-2.691v-2.5H0v2.74
	c0,5.436,3.832,7.869,7.63,7.869c3.812,0,7.659-2.451,7.659-7.93V5.6h2.46V0.36H6.479z M16.999,4.85h-2.46v12.529
	c0,4.959-3.47,7.18-6.909,7.18c-3.174,0-6.88-1.865-6.88-7.119v-1.99h4.069v1.75c0,1.035,0.273,3.441,2.811,3.441
	c1.049,0,2.81-0.447,2.81-3.441V4.85h-3.21V1.11h9.77V4.85z"/>
<path d="M32.625,0.36V5.6h2.76v9.74c0,1.197-0.229,2.186-0.691,2.957c-0.593,1.012-1.89,1.594-3.559,1.594
	c-1.666,0-2.945-0.559-3.594-1.561c-0.423-0.666-0.656-1.705-0.656-2.931V5.6h2.76V0.36H18.525V5.6h2.76v9.83
	c0,2.506,0.512,4.4,1.581,5.916c1.667,2.518,4.681,3.963,8.269,3.963c3.489,0,6.474-1.422,8.202-3.922
	c1.077-1.602,1.647-3.66,1.647-5.957V5.6h2.76V0.36H32.625z M42.994,4.85h-2.76v10.58c0,2.146-0.525,4.062-1.521,5.539
	c-1.603,2.318-4.292,3.59-7.579,3.59c-3.332,0-6.117-1.322-7.644-3.627c-0.988-1.402-1.456-3.158-1.456-5.502V4.85h-2.76V1.11h9.619
	V4.85h-2.76v10.55c0,1.386,0.268,2.538,0.773,3.333c0.795,1.229,2.298,1.908,4.227,1.908c1.942,0,3.476-0.717,4.206-1.965
	c0.528-0.883,0.794-2.002,0.794-3.336V4.85h-2.76V1.11h9.619V4.85z"/>
<path d="M58.886,0.36V5.6h2.789v8.517L51.909,0.36h-7.453V5.6h2.76v14.109h-2.76v5.24h11.149v-5.24h-2.791l-0.007-8.527
	l9.774,13.768h4.693V5.6h2.76V0.36H58.886z M69.285,4.85h-2.76v19.35h-3.557L52.061,8.832l0.005,11.627h2.79v3.74h-9.649v-3.74h2.76
	V4.85h-2.76V1.11h6.316l10.902,15.358V4.85h-2.789V1.11h9.649V4.85z"/>
<path d="M82.166,5.6V0.36H71.047V5.6h2.76v14.109h-2.76v5.24h11.119v-5.24h-2.76V5.6H82.166z M81.416,20.459v3.74h-9.619v-3.74h2.76
	V4.85h-2.76V1.11h9.619V4.85h-2.76v15.609H81.416z"/>
<g>
	<path d="M96.659,5.311c-0.61-0.256-1.438-0.4-2.395-0.4h-3.561v7.149h3.561c0.854,0,1.589-0.118,2.187-0.352
		c1.19-0.481,1.853-1.644,1.853-3.269C98.304,6.92,97.751,5.867,96.659,5.311z M96.178,11.01c-0.51,0.199-1.153,0.3-1.913,0.3
		h-2.811V5.66h2.811c0.844,0,1.594,0.129,2.054,0.318c0.306,0.156,1.235,0.631,1.235,2.461C97.554,9.358,97.312,10.552,96.178,11.01
		z"/>
	<path d="M98.807,1.135c-1.092-0.528-2.478-0.774-4.362-0.774h-11.35V5.6h2.76v14.109h-2.76v5.24h11.119v-5.24h-2.76v-3.1h3.021
		c1.061,0,2.326-0.061,3.704-0.52c3.087-1.095,5.005-4.026,5.005-7.65C103.184,5.096,101.53,2.357,98.807,1.135z M97.928,15.382
		c-1.021,0.341-2.017,0.478-3.453,0.478h-3.771v4.6h2.76v3.74h-9.619v-3.74h2.76V4.85h-2.76V1.11h10.6
		c1.768,0,3.05,0.223,4.035,0.699c2.466,1.107,3.954,3.59,3.954,6.63C102.434,11.737,100.707,14.397,97.928,15.382z"/>
</g>
<path d="M116.515,16.918v2.73h-5.2v-4.419h7.979v-5.3h-7.979V5.66h4.63v2.58h5.42V0.36h-18.409V5.6h2.76v14.109h-2.76v5.24h18.949
	v-8.031H116.515z M121.154,24.199h-17.449v-3.74h2.76V4.85h-2.76V1.11h16.909v6.38h-3.92V4.91h-6.13v5.77h7.979v3.8h-7.979v5.919
	h6.7v-2.73h3.89V24.199z"/>
<g>
	<path d="M141.334,19.709c-0.032,0-0.063,0-0.093,0l-2.929-4.99c2.319-1.297,3.722-3.783,3.722-6.849
		c0-3.349-1.667-5.873-4.617-6.94c-1.418-0.473-2.746-0.569-4.303-0.569h-10.779V5.6h2.76v14.109h-2.76v5.24h11.09v-5.24h-2.73
		V16.01h1.28c0.452,0,0.61,0.037,0.616,0.027c0.021,0.023,0.091,0.111,0.243,0.395l3.528,6.043c1.104,1.943,2.057,2.475,4.432,2.475
		h2.89v-5.24H141.334z M142.934,24.199h-2.14c-2.232,0-2.872-0.498-3.779-2.096l-3.533-6.049c-0.358-0.675-0.455-0.795-1.507-0.795
		h-2.03v5.199h2.73v3.74h-9.59v-3.74h2.76V4.85h-2.76V1.11h10.029c1.484,0,2.743,0.09,4.066,0.53
		c2.654,0.962,4.104,3.171,4.104,6.229c0,3.064-1.538,5.486-4.026,6.524l3.439,5.869c0.121,0.166,0.23,0.195,0.637,0.195h1.6V24.199
		z"/>
	<path d="M135.483,5.232c-0.552-0.206-1.418-0.322-2.429-0.322h-3.11v6.55h3.95c2.041,0,3.26-1.286,3.26-3.44
		C137.154,6.58,136.607,5.669,135.483,5.232z M133.895,10.71h-3.2V5.66h2.36c1.246,0,1.898,0.175,2.157,0.271
		c0.59,0.229,1.192,0.655,1.192,2.088C136.404,9.755,135.513,10.71,133.895,10.71z"/>
</g>
<path d="M161.542,9.802c-2.82-1.062-3.699-1.574-3.699-2.712c0-1.453,1.574-1.67,2.512-1.67c1.125,0,2.018,0.311,2.328,0.532V9.05
	h5.512v-4c0-3.47-4.064-5.05-7.84-5.05c-4.889,0-8.172,2.909-8.172,7.24c0,4.91,3.912,6.398,6.762,7.483l0.229,0.087
	c2.793,1.072,3.932,1.645,3.932,3.018c0,1.795-1.855,2.062-2.961,2.062c-1.725,0-2.869-0.627-2.869-1.041V15.57h-5.51v3.758
	c0,3.926,4.215,5.98,8.379,5.98c5.076,0,8.621-3.162,8.621-7.689C168.765,12.449,164.409,10.853,161.542,9.802z M160.144,24.559
	c-3.791,0-7.629-1.797-7.629-5.23V16.32h4.01v2.529c0,1.164,1.865,1.791,3.619,1.791c1.115,0,3.711-0.273,3.711-2.812
	c0-1.931-1.596-2.637-4.414-3.718l-0.227-0.087c-2.797-1.064-6.281-2.39-6.281-6.783c0-3.882,2.982-6.49,7.422-6.49
	c3.414,0,7.09,1.346,7.09,4.3V8.3h-4.012V5.74c0-0.423-1.379-1.07-3.078-1.07c-0.766,0-3.262,0.175-3.262,2.42
	c0,1.754,1.512,2.408,4.184,3.414c2.84,1.04,6.738,2.469,6.738,7.115C168.015,21.77,164.851,24.559,160.144,24.559z"/>
<path d="M190.734,9.08V0.36h-21.199v8.72h5.391V5.66h2.41v14.049h-2.762v5.24h11.121v-5.24h-2.762V5.66h2.381v3.42H190.734z
	 M182.184,4.91v15.549h2.762v3.74h-9.621v-3.74h2.762V4.91h-3.91v3.42h-3.891V1.11h19.699v7.22h-3.92V4.91H182.184z"/>
<path d="M205.887,0.36V5.6h2.76v9.74c0,1.195-0.229,2.186-0.689,2.957c-0.594,1.012-1.891,1.594-3.561,1.594
	c-1.666,0-2.945-0.559-3.594-1.559c-0.424-0.668-0.656-1.709-0.656-2.933V5.6h2.76V0.36h-11.119V5.6h2.76v9.83
	c0,2.508,0.512,4.4,1.582,5.914c1.664,2.52,4.678,3.965,8.268,3.965c3.488,0,6.475-1.422,8.201-3.922
	c1.078-1.602,1.648-3.66,1.648-5.957V5.6h2.76V0.36H205.887z M216.256,4.85h-2.76v10.58c0,2.146-0.525,4.062-1.52,5.539
	c-1.604,2.318-4.293,3.59-7.58,3.59c-3.334,0-6.119-1.322-7.643-3.629c-0.988-1.398-1.457-3.154-1.457-5.5V4.85h-2.76V1.11h9.619
	V4.85h-2.76v10.55c0,1.384,0.268,2.536,0.773,3.335c0.795,1.227,2.297,1.906,4.227,1.906c1.943,0,3.477-0.717,4.207-1.965
	c0.527-0.883,0.793-2.002,0.793-3.336V4.85h-2.76V1.11h9.619V4.85z"/>
<g>
	<path d="M231.953,5.333c-1.076-0.393-2.156-0.423-3.566-0.423h-2.871v15.488h2.871c1.441,0,2.469-0.137,3.436-0.457
		c2.945-0.955,4.564-3.537,4.564-7.271C236.387,9,234.771,6.326,231.953,5.333z M231.586,19.23
		c-0.896,0.297-1.824,0.418-3.199,0.418h-2.121V5.66h2.121c1.375,0,2.348,0.026,3.316,0.38c2.537,0.895,3.934,3.249,3.934,6.63
		C235.637,16.053,234.201,18.381,231.586,19.23z"/>
	<path d="M233.6,0.983c-1.633-0.521-3.082-0.623-5.033-0.623h-10.66V5.6h2.76v14.109h-2.76v5.24h10.66
		c1.533,0,3.166-0.047,4.742-0.586c5.094-1.555,8.016-5.818,8.016-11.693C241.324,6.917,238.439,2.549,233.6,0.983z M233.09,23.646
		c-1.492,0.51-3.053,0.553-4.523,0.553h-9.91v-3.74h2.76V4.85h-2.76V1.11h9.91c1.877,0,3.266,0.096,4.805,0.588
		c4.512,1.459,7.203,5.561,7.203,10.972C240.574,18.193,237.846,22.193,233.09,23.646z"/>
</g>
<path d="M252.904,5.6V0.36h-11.119V5.6h2.76v14.109h-2.76v5.24h11.119v-5.24h-2.76V5.6H252.904z M252.154,20.459v3.74h-9.619v-3.74
	h2.76V4.85h-2.76V1.11h9.619V4.85h-2.76v15.609H252.154z"/>
<g>
	<path d="M266.483,4.67c-4.234,0-7.551,3.448-7.551,7.85c0,4.555,3.316,8.121,7.551,8.121c4.25,0,7.58-3.566,7.58-8.121
		C274.063,8.118,270.733,4.67,266.483,4.67z M266.483,19.891c-3.814,0-6.801-3.238-6.801-7.371c0-3.981,2.986-7.1,6.801-7.1
		c3.83,0,6.83,3.118,6.83,7.1C273.313,16.652,270.313,19.891,266.483,19.891z"/>
	<path d="M266.483,0c-7.002,0-12.488,5.499-12.488,12.52c0,7.172,5.486,12.789,12.488,12.789c7.02,0,12.52-5.617,12.52-12.789
		C279.003,5.499,273.503,0,266.483,0z M266.483,24.559c-6.582,0-11.738-5.289-11.738-12.039c0-6.6,5.156-11.77,11.738-11.77
		c6.6,0,11.77,5.17,11.77,11.77C278.253,19.27,273.083,24.559,266.483,24.559z"/>
</g>
<path d="M8.229,2.11V3.85h3.21v13.35c0,3.301-1.92,4.441-3.81,4.441c-2.61,0-3.811-2.041-3.811-4.441v-0.75H1.75v0.99
	c0,4.471,3,6.119,5.88,6.119s5.909-1.709,5.909-6.18V3.85h2.46V2.11H8.229z"/>
<path d="M23.035,3.85h-2.76V2.11h7.619V3.85h-2.76v11.55c0,1.53,0.3,2.88,0.93,3.87c0.99,1.529,2.79,2.371,5.07,2.371
	s4.14-0.871,5.069-2.461c0.63-1.051,0.931-2.34,0.931-3.84V3.85h-2.76V2.11h7.619V3.85h-2.76v11.58c0,1.949-0.48,3.689-1.35,4.98
	c-1.41,2.039-3.84,3.148-6.75,3.148c-2.97,0-5.46-1.141-6.81-3.18c-0.931-1.32-1.29-2.939-1.29-4.949V3.85z"/>
<path d="M46.206,21.459h2.76V3.85h-2.76V2.11h4.8L62.825,18.76c0.15,0.209,0.27,0.479,0.42,0.811c0.09,0.148,0.15,0.328,0.21,0.48
	h0.061l-0.061-0.512c-0.03-0.33-0.03-0.689-0.03-0.961V3.85h-2.789V2.11h7.649V3.85h-2.76v19.35h-2.04L51.666,6.55
	c-0.15-0.24-0.301-0.57-0.42-0.84c-0.091-0.15-0.15-0.3-0.21-0.45h-0.061l0.061,0.51c0.029,0.33,0.06,0.66,0.029,0.931v14.759h2.79
	v1.74h-7.649V21.459z"/>
<path d="M72.797,21.459h2.76V3.85h-2.76V2.11h7.619V3.85h-2.76v17.609h2.76v1.74h-7.619V21.459z"/>
<path d="M84.845,21.459h2.76V3.85h-2.76V2.11h9.6c1.29,0,2.609,0.12,3.6,0.6c2.07,0.93,3.39,3,3.39,5.729c0,2.91-1.47,5.16-3.84,6
	c-0.989,0.33-1.949,0.42-3.119,0.42h-4.771v6.6h2.76v1.74h-7.619V21.459z M94.265,13.06c1.02,0,1.859-0.15,2.55-0.42
	c1.56-0.63,2.489-2.13,2.489-4.2c0-1.92-0.779-3.3-2.189-4.02c-0.78-0.33-1.74-0.51-2.85-0.51h-4.561v9.149H94.265z"/>
<path d="M104.705,21.459h2.76V3.85h-2.76V2.11h14.909v4.38h-1.92V3.91h-8.13v7.77h7.979v1.8h-7.979v7.919h8.7v-2.73h1.89v4.531
	h-15.449V21.459z"/>
<path d="M124.085,21.459h2.76V3.85h-2.76V2.11h9.029c1.44,0,2.58,0.09,3.75,0.479c2.07,0.75,3.42,2.49,3.42,5.28
	c0,3.149-1.8,5.46-4.68,5.97v0.06l0.24,0.21c0.149,0.15,0.329,0.33,0.479,0.66l3.51,6c0.33,0.6,0.69,0.689,1.5,0.689h0.6v1.74h-1.14
	c-1.83,0-2.16-0.27-2.91-1.59l-3.539-6.06c-0.54-1.021-1.021-1.29-2.37-1.29h-3.03v7.199h2.73v1.74h-7.59V21.459z M133.895,12.46
	c2.55,0,4.26-1.71,4.26-4.44c0-1.92-0.84-3.149-2.31-3.72c-0.721-0.27-1.71-0.39-2.79-0.39h-4.11v8.55H133.895z"/>
<path d="M155.524,17.32v1.529c0,1.799,2.189,2.791,4.619,2.791c2.76,0,4.711-1.352,4.711-3.812c0-2.789-2.551-3.688-5.281-4.738
	c-2.76-1.05-5.641-2.16-5.641-5.85c0-3.69,2.973-5.49,6.422-5.49c3,0,6.09,1.14,6.09,3.3V7.3h-2.012V5.74
	c0-1.351-2.188-2.07-4.078-2.07c-2.4,0-4.262,1.17-4.262,3.42c0,2.52,2.281,3.39,4.832,4.35c3.029,1.11,6.09,2.34,6.09,6.18
	c0,3.721-2.941,5.939-6.871,5.939c-3,0-6.629-1.35-6.629-4.23V17.32H155.524z"/>
<path d="M176.324,21.459h2.762V3.91h-5.91v3.42h-1.891V2.11h17.699v5.22h-1.92V3.91h-5.881v17.549h2.762v1.74h-7.621V21.459z"/>
<path d="M196.297,3.85h-2.76V2.11h7.619V3.85h-2.76v11.55c0,1.53,0.301,2.88,0.93,3.87c0.99,1.529,2.789,2.371,5.07,2.371
	s4.141-0.871,5.07-2.461c0.629-1.051,0.93-2.34,0.93-3.84V3.85h-2.76V2.11h7.619V3.85h-2.76v11.58c0,1.949-0.48,3.689-1.35,4.98
	c-1.41,2.039-3.84,3.148-6.75,3.148c-2.969,0-5.461-1.141-6.809-3.18c-0.932-1.32-1.291-2.939-1.291-4.949V3.85z"/>
<path d="M219.656,21.459h2.76V3.85h-2.76V2.11h8.91c1.799,0,3.09,0.09,4.5,0.54c3.988,1.29,6.508,4.92,6.508,10.02
	c0,5.25-2.549,8.729-6.777,10.02c-1.32,0.451-2.672,0.51-4.23,0.51h-8.91V21.459z M228.387,21.398c1.41,0,2.578-0.119,3.75-0.508
	c3.238-1.051,5.25-3.932,5.25-8.221c0-4.23-1.951-7.17-5.102-8.28c-1.23-0.449-2.43-0.479-3.898-0.479h-3.871v17.488H228.387z"/>
<path d="M243.535,21.459h2.76V3.85h-2.76V2.11h7.619V3.85h-2.76v17.609h2.76v1.74h-7.619V21.459z"/>
<path d="M266.483,1.75c6,0,10.77,4.68,10.77,10.77c0,6.18-4.77,11.039-10.77,11.039c-5.969,0-10.738-4.859-10.738-11.039
	C255.745,6.43,260.515,1.75,266.483,1.75z M266.483,21.641c4.711,0,8.58-3.961,8.58-9.121c0-5.04-3.869-8.85-8.58-8.85
	s-8.551,3.81-8.551,8.85C257.933,17.68,261.772,21.641,266.483,21.641z"/>
</svg>
