<?xml version="1.0" encoding="utf-8"?>
<!-- Generator: Adobe Illustrator 14.0.0, SVG Export Plug-In . SVG Version: 6.00 Build 43363)  -->
<!DOCTYPE svg PUBLIC "-//W3C//DTD SVG 1.1//EN" "http://www.w3.org/Graphics/SVG/1.1/DTD/svg11.dtd">
<svg version="1.1" xmlns="http://www.w3.org/2000/svg">
<g>
	<g>
		<path style="fill:#254319;" d="M234.744,175.016V119.23h40.707v137.38h-40.707V207h-29.749v49.61h-40.708V79.229h40.708v95.787
			H234.744z"/>
	</g>
	<g>
		<path style="fill:#254319;" d="M175.996,4.901c-93.793,0-170.1,76.307-170.1,170.1c0,13.937,1.697,27.482,4.874,40.454
			l32.387-58.799c8.972-65.294,65.12-115.755,132.84-115.755c73.942,0,134.1,60.157,134.1,134.1c0,73.942-60.157,134.1-134.1,134.1
			c-41.738,0-79.066-19.182-103.677-49.178h0.455l30.28-52.543h36.85v-31.155h-20.699l20.699-41.741V79.232h-10.806L50.18,222.511
			l-21.542,37.383c29.432,50.891,84.462,85.207,147.359,85.207c93.793,0,170.1-76.307,170.1-170.1
			C346.096,81.208,269.789,4.901,175.996,4.901z"/>
	</g>
</g>
<g>
	<path style="fill:#254319;" d="M443.132,201.45l-5.109,12.871h-20.436l28.492-74.081h21.026l27.903,74.081h-20.535l-4.813-12.871
		H443.132z M456.592,163.133h-0.196l-7.958,23.58h16.015L456.592,163.133z"/>
	<path style="fill:#254319;" d="M539.22,159.301c-3.537-2.948-8.057-4.913-12.772-4.913c-3.537,0-8.253,2.063-8.253,6.19
		c0,4.322,5.207,5.993,8.548,7.074l4.912,1.474c10.316,3.046,18.275,8.253,18.275,20.239c0,7.369-1.769,14.935-7.664,19.945
		c-5.797,4.912-13.559,6.976-21.025,6.976c-9.334,0-18.472-3.144-26.037-8.449l8.253-15.523c4.814,4.225,10.514,7.663,17.096,7.663
		c4.521,0,9.334-2.26,9.334-7.467c0-5.404-7.565-7.271-11.691-8.45c-12.085-3.438-20.043-6.583-20.043-20.927
		c0-15.033,10.709-24.858,25.545-24.858c7.467,0,16.604,2.358,23.188,6.092L539.22,159.301z"/>
	<path style="fill:#254319;" d="M603.672,168.831V140.24h19.257v74.081h-19.257v-30.359h-27.806v30.359h-19.257V140.24h19.257
		v28.591H603.672z"/>
	<path style="fill:#254319;" d="M684.459,209.281c-5.4,3.672-12.025,6.48-18.577,6.48c-9.361,0-17.426-5.617-17.426-15.554
		c0-8.137,4.824-12.097,11.665-15.121l1.296-0.576l-1.152-1.584c-1.728-2.376-3.888-4.969-3.888-9.433
		c0-9.361,8.137-14.905,16.85-14.905c8.641,0,16.993,5.472,16.993,14.761c0,6.769-4.465,10.225-10.081,13.033l6.841,7.2
		c2.664-2.376,5.112-4.824,7.129-7.704l7.992,7.633l-6.841,7.345l-0.647,0.647l12.169,12.817H689.14L684.459,209.281z
		 M668.186,191.64c-2.304,1.439-5.112,3.456-5.112,6.48c0,3.24,3.24,4.968,6.12,4.968c2.665,0,5.329-0.936,7.562-2.231
		L668.186,191.64z M679.059,173.206c0-2.736-1.872-5.041-4.752-5.041c-2.521,0-4.537,1.801-4.537,4.465s2.521,5.256,4.249,7.2
		C676.467,178.462,679.059,176.158,679.059,173.206z"/>
	<path style="fill:#254319;" d="M778.112,168.831V140.24h19.257v74.081h-19.257v-30.359h-27.806v30.359H731.05V140.24h19.257v28.591
		H778.112z"/>
	<path style="fill:#254319;" d="M829.2,214.321h-19.257V140.24H829.2V214.321z"/>
	<path style="fill:#254319;" d="M894.732,165.098c-3.93-5.306-10.316-8.155-16.898-8.155c-11.79,0-19.749,9.039-19.749,20.534
		c0,11.692,8.057,20.142,20.043,20.142c6.288,0,12.576-3.045,16.604-7.859v23.089c-6.386,1.965-11.004,3.438-16.997,3.438
		c-10.316,0-20.142-3.93-27.805-10.905c-8.155-7.369-11.889-16.998-11.889-28.002c0-10.12,3.832-19.847,10.905-27.117
		c7.271-7.468,17.784-11.987,28.198-11.987c6.19,0,11.889,1.376,17.587,3.734V165.098z"/>
	<path style="fill:#254319;" d="M951.814,140.24h23.875l-29.476,35.075l32.129,39.006h-24.956l-24.857-32.128h-0.197v32.128h-19.257
		V140.24h19.257v30.556h0.197L951.814,140.24z"/>
	<path style="fill:#254319;" d="M1054.388,175.905c0,23.973-17.194,40.872-40.971,40.872c-23.777,0-40.971-16.899-40.971-40.872
		c0-22.401,19.65-38.122,40.971-38.122S1054.388,153.504,1054.388,175.905z M992.489,176.003c0,12.773,9.433,22.106,20.928,22.106
		s20.928-9.333,20.928-22.106c0-10.218-9.433-19.552-20.928-19.552S992.489,165.785,992.489,176.003z"/>
	<path style="fill:#254319;" d="M1124.931,214.321h-23.974l-18.176-28.493h-0.197v28.493h-19.257V140.24h28.788
		c14.639,0,25.741,6.976,25.741,22.794c0,10.218-5.698,19.061-16.211,20.928L1124.931,214.321z M1082.584,173.448h1.867
		c6.288,0,13.362-1.179,13.362-9.235s-7.074-9.235-13.362-9.235h-1.867V173.448z"/>
	<path style="fill:#254319;" d="M1115.615,140.24h23.09l13.854,20.141l13.853-20.141h23.09l-27.314,38.514v35.567h-19.257v-35.567
		L1115.615,140.24z"/>
</g>
</svg>
