<?xml version="1.0" encoding="utf-8"?>
<!-- Generator: Adobe Illustrator 14.0.0, SVG Export Plug-In . SVG Version: 6.00 Build 43363)  -->
<!DOCTYPE svg PUBLIC "-//W3C//DTD SVG 1.1//EN" "http://www.w3.org/Graphics/SVG/1.1/DTD/svg11.dtd">
<svg version="1.1" id="Layer_1" xmlns="http://www.w3.org/2000/svg" xmlns:xlink="http://www.w3.org/1999/xlink" x="0px" y="0px"
	 width="343.333px" height="344px" viewBox="4.167 2.833 343.333 344" enable-background="new 4.167 2.833 343.333 344"
	 xml:space="preserve">
<g>
	<g>
		<path fill="#254319" d="M234.744,175.016V119.23h40.707v137.379h-40.707V207h-29.749v49.609h-40.708V79.229h40.708v95.787H234.744
			z"/>
	</g>
	<g>
		<path fill="#254319" d="M175.996,4.901c-93.793,0-170.1,76.307-170.1,170.1c0,13.937,1.697,27.481,4.874,40.454l32.387-58.799
			c8.972-65.294,65.12-115.755,132.84-115.755c73.942,0,134.1,60.157,134.1,134.1c0,73.942-60.157,134.101-134.1,134.101
			c-41.738,0-79.066-19.183-103.677-49.179h0.455l30.28-52.543h36.85v-31.155h-20.699l20.699-41.741V79.232h-10.806L50.18,222.511
			l-21.542,37.384c29.432,50.891,84.462,85.207,147.359,85.207c93.793,0,170.1-76.308,170.1-170.101
			C346.096,81.208,269.789,4.901,175.996,4.901z"/>
	</g>
</g>
</svg>
