<?xml version="1.0" encoding="utf-8"?>
<!-- Generator: Adobe Illustrator 14.0.0, SVG Export Plug-In . SVG Version: 6.00 Build 43363)  -->
<!DOCTYPE svg PUBLIC "-//W3C//DTD SVG 1.1//EN" "http://www.w3.org/Graphics/SVG/1.1/DTD/svg11.dtd">
<svg version="1.1" xmlns="http://www.w3.org/2000/svg" xmlns:xlink="http://www.w3.org/1999/xlink" x="0px" y="0px"
	 width="1331.832px" height="965.965px" viewBox="0 0 1331.832 965.965" enable-background="new 0 0 1331.832 965.965"
	 xml:space="preserve">
<g id="Layer_1">
</g>
<g id="Layer_1_copy">
	<g>
		<g>
			<path d="M305.559,965.965C158.398,965.965,0,870.732,0,661.633v-81.309h223.006v66.535c0,71.129,28.193,107.191,83.779,107.191
				c37.666,0,82.561-17.309,82.561-99.797V213.15H150.312V14.791h347.451c74.965,0,114.58,39.625,114.58,114.58v532.262
				C612.344,871.863,458.262,965.965,305.559,965.965L305.559,965.965z M61.6,641.926v19.707
				c0,179.164,131.416,242.73,243.959,242.73c113.104,0,245.184-63.566,245.184-242.73V129.371c0-41.1-11.879-52.979-52.979-52.979
				h-285.85v75.156h181.121c34.096,0,57.91,23.814,57.91,57.912v444.793c0,119-74.475,161.398-144.16,161.398
				c-34.098,0-145.379-12.168-145.379-168.793v-4.934H61.6L61.6,641.926z"/>
		</g>
		<g>
			<path d="M1010.256,965.965c-205.979,0-320.029-141.217-324.785-147.225l-15.24-19.275l129.65-161.188l24.168,27.809
				c0.77,0.873,82.672,92.891,188.676,92.891c43.764,0,94.873-19.043,94.873-72.695c0-43.658-65.828-73.92-142.043-108.947
				c-120.066-55.186-269.48-123.877-269.48-300.105C696.074,119.184,834.854,0,1018.885,0c112.422,0,290.768,55.201,290.768,203.301
				v112.115h-206.98v-70.223c0-14.879-35.709-36.969-85.021-36.969c-57.318,0-97.334,25.844-97.334,62.844
				c0,42.166,63.701,69.615,137.471,101.41c115.654,49.826,274.045,118.068,274.045,305.182
				C1331.832,820.93,1221.367,965.965,1010.256,965.965L1010.256,965.965z M750.377,798.109
				c35.252,34.186,125.52,106.254,259.879,106.254c153.07,0,259.975-93.219,259.975-226.703
				c0-146.584-120.395-198.447-236.811-248.619c-89.852-38.709-174.705-75.268-174.705-157.973
				c0-72.107,66.84-124.445,158.936-124.445c72.076,0,146.623,36.873,146.623,98.57v8.623h83.779v-50.516
				c0-107.064-154.404-141.699-229.168-141.699c-151.355,0-261.209,90.686-261.209,215.627c0,136.75,118.758,191.34,233.602,244.135
				c91.496,42.053,177.922,81.781,177.922,164.918c0,79.07-64.346,134.295-156.475,134.295c-95.16,0-171.375-54.799-209.242-88.486
				L750.377,798.109L750.377,798.109z"/>
		</g>
	</g>
</g>
</svg>
