<svg width="99" height="32" viewBox="0 0 99 32" fill="none" xmlns="http://www.w3.org/2000/svg">
  <path d="M19.2285 12.6755C17.7393 8.3521 13.4682 6.96008 10.6371 7.05834C7.16774 7.1566 5.26944 9.94064 5.17125 9.94064V8.3521C5.17125 8.00819 5.17125 7.54964 4.58212 7.54964L0.850965 7.59877C0.360024 7.59877 0 7.69703 0 8.28659V31.0502C0 31.5906 0.245471 31.9509 0.998248 31.9509H4.7294C5.22034 31.9509 5.72765 31.5578 5.67856 31.0502V23.9427C5.67856 23.7953 5.67856 23.7462 5.87493 23.9427C6.21859 24.434 7.5605 26.1863 11.2917 26.2354C18.8358 26.3828 21.0123 17.7359 19.2285 12.6755ZM14.2209 16.9498C14.1227 18.8332 13.0263 21.175 9.90065 21.2733C6.52952 21.3715 5.3349 19.2426 5.23671 16.7042C5.08943 13.9693 6.87318 12.086 9.70427 12.0368C12.9772 12.0368 14.27 14.5261 14.1718 16.9498H14.2209ZM51.5488 7.10747C50.0597 7.10747 48.5705 7.05834 47.2777 7.95906C46.4267 8.49949 45.7885 9.25282 45.2975 10.1535C45.1993 10.3501 45.1012 10.6448 45.1012 10.3501V8.36848C45.0521 7.87718 44.7084 7.51689 44.0538 7.51689H40.2245C39.6353 7.51689 39.4226 8.05732 39.4226 8.4176V24.7124C39.4226 25.7114 39.9135 25.7605 40.4699 25.7605H44.0538C44.6429 25.7605 45.0521 25.6131 45.0521 24.7615V18.7022C45.0521 17.3593 45.003 15.9181 45.4448 14.6244C45.7394 13.6254 46.4431 12.8884 47.3267 12.4299C48.2268 12.0368 49.1596 11.9386 50.1088 11.9386C50.9106 12.0368 52.3507 12.4299 52.3507 11.1361V7.94268C52.3507 7.54964 52.0071 7.0911 51.5488 7.14023V7.10747ZM73.2485 16.4913C73.1994 11.0706 69.8773 8.43398 67.7826 7.69703C65.0988 6.69806 62.4641 6.79632 60.2876 8.28659C59.6494 8.74514 59.0766 9.30195 58.602 9.92426H58.5038V8.23746C58.5038 7.84442 58.1111 7.48414 57.702 7.48414H54.2327C53.6926 7.48414 53.3817 7.97543 53.3817 8.48311V31.0993C53.3817 31.3449 53.3817 31.9509 54.2327 32H58.062C58.4548 32 59.0112 31.9017 59.0112 31.001V23.8936C59.0603 23.697 59.2075 23.8936 59.3057 24.0901C60.1076 25.2364 62.0877 26.1208 64.1169 26.219C66.948 26.3664 69.0755 25.3675 70.7774 23.4841C72.3811 21.5026 73.2321 19.0297 73.2157 16.4749H73.2485V16.4913ZM67.5372 16.8516C67.5863 19.3408 65.7043 21.3224 63.2169 21.3224C59.4857 21.2242 58.602 18.4893 58.5529 16.9498C58.5529 13.4289 60.7949 12.1842 62.6768 12.0368C66.2444 11.824 67.4881 14.3623 67.5372 16.8516ZM98.1883 16.8025C98.581 9.84238 92.7225 4.37257 84.3765 8.3521C79.1561 10.7922 78.027 18.2927 81.4963 22.567C85.7184 27.8403 93.6553 26.9887 96.8464 23.2549C97.2882 22.7636 96.9936 22.3541 96.5518 22.0102L94.0153 20.2252C93.6716 19.9795 93.1643 20.0778 92.9188 20.3726C92.4279 20.913 91.1842 22.0594 89.3513 22.0102C87.0112 22.0102 85.5711 20.52 85.1292 18.4893L97.3373 18.391C98.0901 18.3419 98.0246 17.7523 98.1392 16.7533L98.1883 16.8025ZM85.1783 14.5589C85.3256 12.3644 87.1585 11.087 89.2041 11.087C91.2824 11.1361 92.477 12.5773 92.6734 14.5589H85.2274H85.1783ZM36.166 7.54964H32.8931C32.0421 7.54964 31.6984 8.18833 31.6984 8.89253C31.6984 8.89253 31.8457 16.5404 31.6003 18.0798C31.4039 19.6684 30.7493 21.1095 28.4255 21.2569C25.7908 21.3552 25.5453 18.7677 25.4471 18.2764V8.67963C25.4471 8.09007 25.0053 7.48414 24.3016 7.48414H20.2759C19.9322 7.48414 19.7849 7.77892 19.7358 7.97544L19.7849 8.82702C19.8831 9.1218 20.4723 9.92426 20.7832 10.4647C22.2396 13.3961 22.5833 16.7533 21.7323 19.914C21.2905 21.5026 20.9796 21.9447 20.7341 22.5507C20.3904 23.3531 21.8305 25.0399 23.1724 25.5312C25.0053 26.219 29.4238 27.0215 31.8621 23.1894V24.5322C31.8621 25.0235 32.2548 25.6786 33.1058 25.6786H36.1824C36.7715 25.6786 37.2788 25.1873 37.2788 24.4831V8.72876C37.2461 8.10645 36.7551 7.54964 36.166 7.54964ZM77.5687 0H73.8376C72.9866 0 72.7412 -9.8656e-07 72.7412 0.802456V6.46878C72.7412 7.32037 72.5939 8.49949 73.0357 9.20369C73.8867 10.5466 75.2286 12.7738 75.3759 15.1157C75.4741 17.3593 75.2286 19.5865 74.2794 21.6827C73.7885 22.6817 73.0357 23.4678 72.7902 24.5159C72.6921 24.9089 72.643 25.3019 72.643 25.7114C72.643 26.0061 72.7902 26.563 73.4448 26.563H77.2742C77.716 26.563 78.2724 26.4647 78.2724 25.7114V0.851586C78.2724 0.343909 78.0269 0 77.5687 0Z" fill="#432B8D"/>
</svg>
